<svg width="62" height="32" viewBox="0 0 62 32" fill="none" xmlns="http://www.w3.org/2000/svg">
<g clip-path="url(#clip0_66_32421)">
<path d="M30.8147 13.037L23.7036 24.8889L30.8147 32L37.9258 24.8889L30.8147 13.037Z" fill="#333333"/>
<path d="M30.8133 0.00060784L24.2952 6.51879L30.8133 13.037L37.3315 6.51879L30.8133 0.00060784Z" fill="black"/>
<path d="M11.8519 13.037H30.8148L18.963 1.18518H0L11.8519 13.037Z" fill="#333333"/>
<path d="M42.6665 1.18518L30.8147 13.037H49.7777L61.6295 1.18518H42.6665Z" fill="#333333"/>
<path d="M49.7777 13.037L43.8517 18.963H30.8147L36.7406 13.037H49.7777Z" fill="#4D4D4D"/>
<path d="M11.8518 13.037L17.7777 18.963H30.8148L24.8888 13.037H11.8518Z" fill="#4D4D4D"/>
<path d="M37.9258 13.037H23.7036L30.8147 20.1481L37.9258 13.037Z" fill="#1A1A1A"/>
<path d="M17.7779 7.11111H5.92603L11.852 13.037L17.7779 7.11111Z" fill="#4D4D4D"/>
<path d="M11.8519 1.18518H0L5.92593 7.11111L11.8519 1.18518Z" fill="#4D4D4D"/>
<path d="M55.7037 7.11111H43.8518L49.7777 13.037L55.7037 7.11111Z" fill="#4D4D4D"/>
<path d="M49.7779 13.037H37.926L43.8519 18.963L49.7779 13.037Z" fill="#666666"/>
<path d="M42.6665 13.037H30.8147L36.7406 7.11111L42.6665 13.037Z" fill="#1A1A1A"/>
<path d="M30.8147 13.037H18.9629L24.8888 7.11111L30.8147 13.037Z" fill="#1A1A1A"/>
<path d="M48.5926 7.11111H36.7407L42.6666 1.18518L48.5926 7.11111Z" fill="#1A1A1A"/>
<path d="M24.889 7.11111H13.0371L18.963 1.18518L24.889 7.11111Z" fill="#1A1A1A"/>
<path d="M23.7037 13.037H11.8518L17.7777 18.963L23.7037 13.037Z" fill="#666666"/>
<path d="M61.6297 1.18518H49.7778L55.7038 7.11111L61.6297 1.18518Z" fill="#4D4D4D"/>
</g>
<defs>
<clipPath id="clip0_66_32421">
<rect width="61.6296" height="32" fill="white"/>
</clipPath>
</defs>
</svg>
